<svg xmlns="http://www.w3.org/2000/svg" xmlns:xlink="http://www.w3.org/1999/xlink" version="1.1" id="Calque_1" x="0px" y="0px" width="100px" height="100px" viewBox="0 0 100 100" enable-background="new 0 0 100 100" xml:space="preserve">
<ellipse cx="50" cy="24.77" rx="19.825" ry="21.019"/>
<path d="M85.557,71.549c-0.806-6.993-2.883-16.587-5.8-21.418c-2.016-3.337-6.118-6.103-12.729-7.796  c-4.316,4.704-10.35,7.625-17.028,7.625c-6.677,0-12.71-2.921-17.026-7.624c-6.609,1.692-10.711,4.458-12.727,7.795  c-2.918,4.832-4.996,14.425-5.8,21.417c-0.205,1.205-0.454,4.527-0.396,5.028c1.287,10.911,17.876,19.569,34.94,19.868  c0.336,0.007,0.674,0.008,1.011,0.008c0.338,0,0.675-0.003,1.011-0.008c16.583-0.219,33.653-8.957,34.94-19.868  C86.01,76.075,85.707,72.833,85.557,71.549z"/>
</svg>