<?xml version="1.0" encoding="utf-8"?>
<!-- Generator: Adobe Illustrator 16.0.0, SVG Export Plug-In . SVG Version: 6.00 Build 0)  -->
<!DOCTYPE svg PUBLIC "-//W3C//DTD SVG 1.1//EN" "http://www.w3.org/Graphics/SVG/1.1/DTD/svg11.dtd">
<svg version="1.1" id="Livello_1" xmlns="http://www.w3.org/2000/svg" xmlns:xlink="http://www.w3.org/1999/xlink" x="0px" y="0px"
	 width="23px" height="23px" viewBox="988.5 988.5 23 23" enable-background="new 988.5 988.5 23 23" xml:space="preserve">
<g id="icona">
	<path id="unimib-down" fill="#E68700" d="M992.188,991.81l7.812-2.659l7.714,2.9l2.864,7.949l-2.381,7.336l-8.197,3.242
		l-7.778-2.655l-2.894-9.039L992.188,991.81z M992.3,992.866c0.073,0.09,4.634,5.68,4.79,5.708c0.2,0.036,6.625-4.611,8.822-6.419
		l-5.912-3.003L992.3,992.866z M997.019,999.021c-0.16-0.042-4.896-5.714-4.896-5.714l-0.667,2.059c0,0,4.482,4.21,4.508,4.499
		c0.023,0.252-3.887,4.804-4.401,5.207l0.849,1.541c0.517-0.368,3.955-5.328,4.255-5.382c0.332-0.059,7.198,4.612,9.395,6.555
		l1.518-0.275l-0.062-0.668c-1.766-1.586-9.933-6.368-9.954-6.552l0,0c-0.02-0.355,9.5-6.339,10.178-6.868l-0.025-1.371
		l-1.596,0.547C1004.393,994.261,997.197,999.07,997.019,999.021z M991.375,1004.646c0.357-0.275,4.185-4.504,4.175-4.781
		c-0.01-0.256-4.312-4.143-4.312-4.143l-1.852,3.163L991.375,1004.646z M992.283,1007.359l7.717,3.219l5.663-2.482
		c-1.351-1.402-8.59-6.462-8.895-6.416C996.546,1001.712,994.447,1004.953,992.283,1007.359z M1007.924,1006.497l2.605-6.632
		l-2.572-5.96c-0.931,0.875-9.796,6.007-9.796,6.36C998.161,1000.402,1003.818,1003.622,1007.924,1006.497z"/>
	<path id="unimib-up" fill="#E68700" d="M992.004,991.986l7.996-2.468l7.321,1.847l3.329,7.09l-2.053,9.056l-8.598,3.104
		l-7.927-2.568l-2.998-9.143L992.004,991.986z M1004.94,998.402c0.293,0,2.328-4.83,2.535-5.709l-7.476-3.331l-4.714,1.99
		C999.684,993.368,1004.417,998.402,1004.94,998.402z M1007.597,999.23c0.086,0.622,0.448,0.431,1.535,4.485l1.362-4.898
		l-1.725-3.277C1008.598,997.505,1007.539,998.812,1007.597,999.23z M1007.425,1007.35c-0.026-0.539-0.893-4.323-1.38-4.444
		c-0.515-0.13-3.898,3.312-11.386,5.674l5.341,1.947L1007.425,1007.35z M991.969,1006.699c2.639-0.535,10.729-5.312,10.781-5.675
		c0.062-0.436-9.142-7.383-10.332-8.107l-2.95,6.296L991.969,1006.699z"/>
	<path id="lingua" fill="#E68700" d="M1009.483,1005.765c0,0-0.253,3.236,1.609,4.654c0.39,0.296,0.479,0.673-0.012,0.816
		c-1.368,0.403-4.193,0.518-5.815-1.154c-0.229-0.235-0.62-0.559-0.703-0.788L1009.483,1005.765z"/>
	<path id="cerchio" fill="#E68700" d="M1011.5,1000c0,6.352-5.148,11.5-11.5,11.5s-11.5-5.148-11.5-11.5s5.148-11.5,11.5-11.5
		S1011.5,993.648,1011.5,1000z M1000,990.57c-5.208,0-9.43,4.222-9.43,9.43s4.221,9.43,9.43,9.43c5.208,0,9.43-4.222,9.43-9.43
		S1005.208,990.57,1000,990.57z"/>
</g>
<g id="guide">
</g>
</svg>
