<svg xmlns="http://www.w3.org/2000/svg" xmlns:xlink="http://www.w3.org/1999/xlink" version="1.1" id="Layer_2" x="0px" y="0px" width="100px" height="100px" viewBox="0 0 100 100" enable-background="new 0 0 100 100" xml:space="preserve">
<g>
	<path d="M59,92c0,1.657,1.343,3,3,3s3-1.343,3-3V77h-6V92z"/>
	<path d="M35,92c0,1.657,1.343,3,3,3s3-1.343,3-3V77h-6V92z"/>
	<path d="M63,44H37c-1.1,0-2,0.9-2,2v29h30V46C65,44.9,64.1,44,63,44z M54,66h-8c-1.104,0-2-0.896-2-2s0.896-2,2-2h8   c1.104,0,2,0.896,2,2S55.104,66,54,66z M54,57h-8c-1.104,0-2-0.896-2-2s0.896-2,2-2h8c1.104,0,2,0.896,2,2S55.104,57,54,57z"/>
	<path d="M24,58v14l3-3l3,3V58c0-1.657,1.343-3,3-3v-6C28.03,49,24,53.03,24,58z"/>
	<path d="M60,18h-0.216l2.175-10.597c0.223-1.082-0.475-2.14-1.557-2.362s-2.139,0.475-2.361,1.557L55.72,18H44.28l-2.32-11.402   c-0.222-1.082-1.279-1.779-2.361-1.557s-1.779,1.28-1.557,2.362L40.216,18H40c-2.761,0-5,2.239-5,5   c0,2.738,2.204,4.957,4.934,4.993L39,42h22l-0.935-14.023C62.726,27.854,65,25.683,65,23C65,20.239,62.761,18,60,18z M40,26   c-1.654,0-3-1.346-3-3s1.346-3,3-3s3,1.346,3,3S41.654,26,40,26z M53,38h-6c-1.657,0-3-1.343-3-3s1.343-3,3-3h6   c1.657,0,3,1.343,3,3S54.657,38,53,38z M60,26c-1.654,0-3-1.346-3-3s1.346-3,3-3s3,1.346,3,3S61.654,26,60,26z"/>
	<path d="M67,49v6c1.657,0,3,1.343,3,3v14l3-3l3,3V58C76,53.03,71.97,49,67,49z"/>
	<circle cx="40" cy="23" r="1.5"/>
	<circle cx="60" cy="23" r="1.5"/>
	<path d="M53,33.5h-6c-0.827,0-1.5,0.673-1.5,1.5s0.673,1.5,1.5,1.5h6c0.827,0,1.5-0.673,1.5-1.5S53.827,33.5,53,33.5z"/>
</g>
</svg>